<?xml version="1.0" standalone="no"?><!DOCTYPE svg PUBLIC "-//W3C//DTD SVG 1.1//EN" "http://www.w3.org/Graphics/SVG/1.1/DTD/svg11.dtd"><svg t="1575448948241" class="icon" viewBox="0 0 1024 1024" version="1.1" xmlns="http://www.w3.org/2000/svg" p-id="2694" xmlns:xlink="http://www.w3.org/1999/xlink" width="200" height="200"><defs><style type="text/css"></style></defs><path d="M170.666667 469.333333a341.333333 341.333333 0 1 1 682.666666 0v256a42.666667 42.666667 0 1 1-85.333333 0v-256a256 256 0 0 0-512 0v256a42.666667 42.666667 0 1 1-85.333333 0v-256z" fill="#75C82B" p-id="2695"></path><path d="M512 42.666667a42.666667 42.666667 0 0 1 42.666667 42.666666v85.333334a42.666667 42.666667 0 0 1-85.333334 0V85.333333a42.666667 42.666667 0 0 1 42.666667-42.666666zM418.730667 833.365333a42.666667 42.666667 0 0 1 51.925333 30.677334 42.666667 42.666667 0 0 0 82.688 0 42.666667 42.666667 0 1 1 82.602667 21.248 128 128 0 0 1-247.893334 0 42.666667 42.666667 0 0 1 30.677334-51.925334zM85.333333 746.666667a42.666667 42.666667 0 0 1 42.666667-42.666667h768a42.666667 42.666667 0 1 1 0 85.333333H128a42.666667 42.666667 0 0 1-42.666667-42.666666z" fill="#75C82B" p-id="2696"></path></svg>